/* XPM */
static char *result[] = {
/* columns rows colors chars-per-pixel */
"64 64 118 2 ",
"   c #020305",
".  c #010406",
"X  c #0A0405",
"o  c #0D0405",
"O  c #010509",
"+  c #0A0609",
"@  c #100607",
"#  c #140605",
"$  c #140707",
"%  c #110B0C",
"&  c #160F0E",
"*  c #180908",
"=  c #1C0B0A",
"-  c #1D0F0C",
";  c #050F13",
":  c #0C1316",
">  c #0D181D",
",  c #1C1411",
"<  c #1E1916",
"1  c #151718",
"2  c #151D1F",
"3  c #210C0A",
"4  c #23110E",
"5  c #241814",
"6  c #2E1815",
"7  c #271F1B",
"8  c #231F1C",
"9  c #2D221C",
"0  c #37221C",
"q  c #1A1F21",
"w  c #1D2427",
"e  c #19262C",
"r  c #242626",
"t  c #292521",
"y  c #212A2D",
"u  c #292B2A",
"i  c #302621",
"p  c #352A24",
"a  c #3A2F27",
"s  c #302C29",
"d  c #34312D",
"f  c #3F332C",
"g  c #242F33",
"h  c #2C3030",
"j  c #2B3437",
"k  c #22333B",
"l  c #343634",
"z  c #3D3932",
"x  c #323A3C",
"c  c #402521",
"v  c #4E3327",
"b  c #453831",
"n  c #483D34",
"m  c #403D38",
"M  c #45403B",
"N  c #41423F",
"B  c #4B4339",
"V  c #4D473F",
"C  c #504239",
"Z  c #54473E",
"A  c #2E3D43",
"S  c #374041",
"D  c #3D4445",
"F  c #3B474A",
"G  c #474440",
"H  c #464845",
"J  c #4E4A44",
"K  c #434C4E",
"L  c #4D4E4A",
"P  c #574C41",
"I  c #5D4D42",
"U  c #55514B",
"Y  c #5C5348",
"T  c #475053",
"R  c #4D5250",
"E  c #4B5659",
"W  c #545550",
"Q  c #525757",
"!  c #5C5750",
"~  c #535B5B",
"^  c #5A5D59",
"/  c #635246",
"(  c #63574C",
")  c #69574A",
"_  c #6B5C4F",
"`  c #715D4D",
"'  c #625C53",
"]  c #58605F",
"[  c #696257",
"{  c #61615B",
"}  c #6F685E",
"|  c #706254",
" . c #776354",
".. c #7B6B5B",
"X. c #5D6462",
"o. c #666661",
"O. c #606867",
"+. c #626C6A",
"@. c #6B6E69",
"#. c #836D5B",
"$. c #817666",
"%. c #8A7360",
"&. c #877C6D",
"*. c #937863",
"=. c #96806C",
"-. c #958676",
";. c #9F8F7D",
":. c #A48870",
">. c #AC927B",
",. c #B59A81",
"<. c #BAA792",
"1. c #C0A389",
"2. c #C7AF96",
"3. c #CEB59B",
"4. c #D5BBA0",
"5. c #E0C7AC",
"6. c #E6CEB4",
"7. c #F1DAC0",
/* pixels */
"O O       O     O O O O O O O O O O O O O O O O O O O O O 5 5 < p t 7 , O O O O O O O O O O O O O O O O O O O O             O . ",
"O O O O O O + @ o @ @ $ @ + + + + % % % % % % % % % % % & i p 9 2 a t 9 & % % % % % % % % % % % + + + + * $ @ @ # @     O O O . ",
"O O O O O O @ % % % % & 3 * - 4 4 5 6 6 6 0 0 c c c c c 0 2 > > > 2 2 2 9 0 c c 0 0 0 0 0 0 6 6 6 4 4 * 4 & % % % = +       O . ",
"O O O + O + @ % & % & & 3 % & & < < 8 7 8 t 7 s s s s p t q e e e e e q t a i s i i 9 t 8 i 7 7 < , - & 5 , 5 & & = @ +     O . ",
"O O + + + + @ % * , 4 & 3 * - , 5 5 5 6 6 9 5 7 9 i i i 9 9 j x M x j 7 0 p 0 0 0 0 9 5 5 5 6 6 6 5 4 - 6 , 5 , & = + + + @ O . ",
"O O + + O + @ % % % & 1 6 4 - 5 6 c c c v 6 , & 9 v v v v a x D ! D j a v v v v v c 5 - 5 0 c c c c 0 0 6 < < , & 3 + + + + O . ",
"+ @ @ @ # $ * 3 3 4 4 6 0 t q q n I / ) ) I f f / #.%.%.*./ S T ' K x ` *.%.#.#.#. .n a b / ) ) / I C s 9 6 6 6 4 4 @ * # # @ * ",
"o @ @ $ $ * = & : 1 2 t d n w r ) #.#.%.*.*.*.*.*.:.>.:.,...S R ' T S *.,.,.,.>.>.:.:.*.*.*.*.%.%. .` I z u w q 1 < * & & % % = ",
"  @ @ @ * & - < 1 q w w u s w w n Z P Y Y ( ( ( ( _ _ :.2.$.S R [ T S ;.4.;.| | | _ _ ( ( / Y I I Z C n d h g y 2 7 - & & & % X ",
"O + $ @ = = - 8 > 2 e q q e e e k k k A F F A A S F D ;.6.-.E ] } X.R <.7.$.S F F D S F S A A A k k k k e g y e q i 4 % & % * X ",
"O + @ @ % % - 9 2 2 d d d z z m M V P G T F P P I L K ;.7.;.E @.-.O.Q <.7.&.F L Y Y V H K H J V V B B M m n z e q p 4 % % % @ . ",
"O o = * = - - p 2 q a s h h m Z M Z Z V T D C P I H K >.7.;.E @.$.X.Q <.7.&.K J V U Y H K V m Z Z P m l m B B y q a 4 4 3 * = X ",
"  @ * @ * * & p q w i s z z N l S G C V T D P / P J K >.7.;.~ +.$.@.Q <.7.&.K H Y ! U H K V m J N N G G V l z y r f - 3 = % = X ",
"  @ * % = , 9 f q w i t z M N G H Y I G E E H ! ! L T >.7.;.~ +.o.X.Q <.7.&.T H L E K H R V ( _ U J L N B y z y r n p , 3 * * X ",
"  @ = % - i b f q w p s l m J W Q R K T E E ~ E E E K >.7.;.~ +.$.O.Q <.7.$.K T F ] F K Q T R E Q R L H G z z y u Z Z i 3 - = X ",
"  @ = % - i n b w w a d g x L ..[ [ [ [ [ } } } } } } <.7.;.~ +.$.O.Q <.7.;.{ o.H K W } } } } } | } K D S j m g u P P i 3 , = X ",
"  @ = & - i n n w w b n p j N ,.2.3.4.5.5.5.5.6.6.6.6.7.7.;.] +.$.O.Q <.7.6.5.4.2.,.5.6.6.5.5.4.3.=.S z b n n y u I P p - , = X ",
"  @ = & = p C C w y u h z x H 1.2.3.<.<.2.2.2.2.2.3.3.2.3.&.] O...O.Q -.3.<.2.<.2.2.3.3.3.2.2.3.3.-.F V l l d y u I Y p 4 , = X ",
"  @ = & = p C C w y u h n x J 1.2.&.L Q ^ ^ ^ W ^ ^ ^ ] ^ ^ O.O...O.X.^ ^ ^ Q ^ ^ ^ ] ^ ^ ^ L -.4.-.F V z l n g u / Y p 4 , = X ",
"  @ = & * , 7 7 q w f B n x J 1.1.$.~ ^ ^ ^ ! W ^ { { { { { O.O.$.O.X.{ { ^ W ^ { { { { { ^ R -.3.&.F J C I n g h / Y p 4 5 3 X ",
"  @ - : & 9 6 3 = 2 8 B h S J ,.3.$.~ [ ..| _ _ `  . .#.*...X.@.=.@.] ..%. .( | | |  . .#._ T =.2.&.F V C Z n g h ) / p 4 , 3 X ",
"  @ = % & 0 9 3 = 2 i s l F N <.5.$.~ ' ) _ ! ' ! ! ' #.*.} X.+.$.@.] ..%...! ! ! ' | | | [ T -.1...K N n Z n g d ) ( p 4 , = X ",
"  @ - & & , , , 1 r a b D F U 4.6.$.~ ' ( ) U ! ! U ' ..! ^ ] +.o.+.X.{ ' ..' W ! ! !  .| ' E %.:.$.K T M Z n g d ) ( a 4 - = X ",
"  @ = & - p n n y g a d x D U 4.6.&.~ ! Y _ U _ ' ( ' ] O.] ] O.+.O.O.O.+.] ! ' ' ' U  ._ ' E ..>.=.K K z Z n g d ` ) a 4 , = X ",
"  @ 4 - 4 f P Z y g a d n S U 4.5.&.~ ! ( _ ! Y Y ^ O.] ] o.@.@.@.@.@.@.O.+.O.W U Y !  ._ ' E %.2.-.F V C B n g d ` _ a 4 5 3 X ",
"  @ 4 , 4 f I I y y z m B x L 3.5.$.~ ! ( _ ' ( ^ O.X.o.@.@.+.+.X.O.+.@.@.o.O.O.U ( Y  ._ ' E $.5.-.F N V M m k l ` _ a 4 5 3 X ",
"  @ 4 , 4 f I I r y g j j x M :.3.$.~ ! _ ( U ! X.O.o.@.+.+.+.X.Q ] O.+.+.o.o.O.~ ( L  ._ ! E -.6.-.S A A j g g d  ._ a 4 5 3 X ",
"  @ 4 4 - f I ) I / )  .#.%.=.,.5.$.Q ' _ _ ' Q O.o.o.+.+.^ R H J J W ] +.+.o.o.X.W ! _ ( ! E ;.6.2.;.;.=.%.#.| `  ._ a 4 5 4 X ",
"  @ & & - f / ` ..#.*.:.>.,.1.3.5.$.Q ' ( ..[ ~ O.o.O.+.W J N H H N N J ^ +.O.o.O.Q  .....[ E ;.5.4.4.3.2.1.>.:.*. ._ a 4 : 3 X ",
"  @ ; : , 8 s d z M V Z Y Y ( &.4...E ! _ #.[ ] X.O.+.~ G N H K H H G N G X.+.{ X.] [ ....^ E U } [ [ [ ' ( Y Z B m d 8 , : % X ",
"% & ; : < 8 w y g x A S D S S S ' W ' | $.o.{ X.o.O.O.L M H D D N N H N m Q +.{ X.O.X.W ^ Q ^ ^ ^ T K T F F F A A k g u q : ; 5 ",
"% & ; : 2 q w y g x x S x R R ! Y ) _ { o.] Q X.o.O.O.G G D S H N G D D m L +.X.{ ] ] R [ ' ^ { [ K H R H F D S x j g w 2 : ; 5 ",
"% - O : 2 w u d z z b n H R U ` ! ( ! ] ] ] Q ] o.O.O.G M N S G N G S N m L O.X.} o.o.o.o.[ o.^ ' ! Y _ Y U P V B n l w 2 ; % 5 ",
"* % ; ; > q w y j l / ( K T L W E ~ ~ ~ ~ Q Q Q { X.O.H m N S S H S N N m R O.{ X.] ] ~ Q K ~ ] ] ^ Q ! T K D S x j j w 2 ; ; 6 ",
"  @ ; ; < < q q r r h l x S N N H H E ! [ [ [ ^ ^ { O.Q m N N S S N H m G ] ] { ] ] [ [ | U Q R L H H S D h h h u u r 8 < ; % X ",
"O @ = & , p n C I / ` #.%.*.=.;.>.( T ) _  ._ W ~ ' X.X.L m N N N N m M Q ] ] ^ ] R ` ` ` ( K ..>.;.;.;.;.=... ._ I Z i , & 3 X ",
"  @ - & - a C I ) ` #.=.:.>.1.1.2...T / / Y ( L ~ ^ { X.X.R J N N N H Q ~ ~ { ] ~ U ) / / Y F =.4.2.2.2.1.>.=.*.#.` / p - - 3 X ",
"  @ - & - a C Z d s d z M M _ 1.2...T Y I P H I R ~ ' { ] X.] ~ Q ~ ] ] E { ^ ] R / m / / Y F &.3.-.J L J G m z b ) Y p 3 4 3 X ",
"  @ - & - p n C w y y y h j M 1.2.} K P P Y L U Y W E ^ { ] ] ] ] ] ] ^ ' ] ~ R ( U G / I P D &.3.$.j x j h u g u / I p - , 3 X ",
"  @ = & - p n C q q t a f d M 1.2.} K P Z I J J J _ W E ^ { { ^ ^ { { { ] Q U ) U L J I P J D $.3.$.j z n f f y u I P p - - = X ",
"  @ = * = p b n q q p d d u M 1.1.| K J C P G J J I ) U E E ~ ~ ] ~ ~ Q R ( ) L J J J I P J D $.2...g d d b a y u P Z i = - = X ",
"  @ * % * i f f q q 8 y y y m >.1.| F V C P V V V M P ` _ L E ^ ..~ R (  .) G J P V G I P V S %.1.} g w 8 9 i w 8 C V 9 = & * X ",
"  o * % * 9 f f 2 2 t s d r z :.,.( D V C P V C B M M Z _ ` R W _ Q L ` ` P V V V Z Z Y Z V x #.,.| k y 6 6 3 - 3 6 f 7 = - = X ",
"  o * @ * 7 p a 1 w w y y g z =.:.Y S G B B V V P P I ( ( I R R ) R H I / / I I Z Z Z Z Z M x #.1.| k y 6 6 3 3 3 3 8 < = & * X ",
"  o * % * % : 1 1 q w w y g d ` =._ x N J H H H J L U ! ! P K R ( L H Y U U U L J J J J P m j ..,.| g y , 4 # # # 3 t < * & * X ",
"  o # % * % > : > 2 t i t y s ` :./ x l M M M M G V J J G N K W  .L H G V G G G G G M M M l h  .>._ y u t t 8 : 1 i d 5 * $ # X ",
"  o $ @ * % : : : > 9 9 i w s #.:.I d l n B C C V Z Z V V N F L ) L D M V V V V B B B B n b s ` :.) h d p p i 2 1 f f 5 * % * X ",
"  o $ + # < i 9 : > 5 < 7 w u / *.%.%.%.%.:.>.>.>.>.>.>.>.| S H P H x %.,.,.,.,.>.>.>.>.>.:.=.%.%./ z s t p t > 1 f f 5 * & * X ",
"  o @ + # < i i : > 5 < 1 q u I #.%.#.#.%.=.=.:.>.>.>.>.,. .S J ) H l =.1.,.>.>.>.>.:.:.:.:.%.#. .P r u t 9 9 > 1 a a < * @ # X ",
"  + $ + # < 9 9 : > 5 5 1 r d b d d h h h l d z m m m %.,.| x H / N l %.,. .m m m m z l l d s s z m d s t 7 7 > 1 a a , # @ * X ",
"  + # @ # , 9 9 : : , 5 t r r s l h j j j j g u h h g  .,._ x D H D h #.:.Z g j j h j j j h j h l s s t t < < > 1 p p , # @ # X ",
"  + # o # & < 5 ; : , & 8 8 q r h a a u g g r y t u y  .>.) j x S l u ..=.Z g h d p a d g a h s u 8 8 s i < < : 1 i 7 & # % # . ",
"  + o o @ $ 4 , ; : & & 1 t 8 2 r a 0 t y r i t 7 r y ` :./ h M n l u ..:.Z y s b a a s y i s s u t < q 7 < < > : 7 - * @ o o X ",
"o @ o o o o - & ; ; , 1 : 1 8 8 8 8 5 8 e w i i p t w ) *.P g l n l r  .:.Z y 8 p a p t y i t 8 8 t t 8 7 7 8 : : < $ @ @ o @ * ",
"o @ o o o o - & ; ; , 1 , , < 7 7 9 9 8 w w r r r w w I %.Z y l n h r ` *.B e t p a a t w i p i 9 9 9 9 7 < 8 : : , $ @ @ @ + $ ",
"  @ o o # @ = & ; ; ; : : 1 1 1 1 1 < 2 w w e e y y w I  .n w h b u q / #.C e w r t t w y q 8 q 2 i 7 1 1 1 : ; ; , $ @ * @ @ X ",
"  o o o o o $ + ; ; ; ; ; : : : : : : 1 2 2 2 2 q q s / ) f 2 u d y q Z ` / r 2 2 2 2 q q 2 2 > : > : : : : : ; ; % @ @ @ @ @ X ",
"    o o o o # @ $ * = - 5 7 9 i i p p a f f f b b b Z Z I a 2 r d y q C ) / C n C n n b b f f f 7 > 1 9 5 4 - = $ + +       o X ",
"    + o o o o @ @ @ @ % 5 i p p a f f b b n n C C C C C C p 2 w s w 2 n / I I Z I I C b d b b b t > 1 0 - $ * # # o + + + + O . ",
"      +     o o o o # * 4 , , < < 5 7 7 9 9 9 i i i i i p 7 > q i q 1 i a a p p p a i i 9 9 9 9 , ; % 5 - @ @ # # @ + + + @ O . ",
"          o o o @ o # * * # # # * * * = = = 3 3 4 4 4 3 - & > 2 t 2 : - - - 4 4 4 4 4 3 3 = = = = = * @ $ + @ o # @ +       O . ",
"            o o @ # # @ # @ % + % & & & % & & & , , & & % ; ; : 1 : ; % & & , , , < , , & % % % % % % + $ + # o @ o +     O O . ",
"      O     o # @ @ @ # # @ # # $ * * = * = = - 4 4 - - = + O + O ; O + - 4 4 4 4 - - = = = = * * $ * @ * @ # # # o     O O O . ",
". . . . . . . X X X X X X X X X X X X X $ $ $ $ $ $ $ $ * - , - X 5 , , = * * $ * * $ $ $ $ $ $ X X X X X X X X X . . . . . . . "
};
