/* XPM */
static char *result[] = {
/* columns rows colors chars-per-pixel */
"64 64 80 1 ",
"  c #000000",
". c #0B0304",
"X c #130505",
"o c #1B0606",
"O c #1F0807",
"+ c #140609",
"@ c #1C0709",
"# c #1C080A",
"$ c #230706",
"% c #2B0607",
"& c #220807",
"* c #2E0907",
"= c #230708",
"- c #29070A",
"; c #24090A",
": c #2C0A0B",
"> c #340707",
", c #3B0707",
"< c #3A0907",
"1 c #330B0B",
"2 c #3B0C0C",
"3 c #3D100F",
"4 c #350F11",
"5 c #430D0D",
"6 c #4B0D0D",
"7 c #530E0D",
"8 c #5A0E0E",
"9 c #46100F",
"0 c #4D100E",
"q c #54110F",
"w c #5B110F",
"e c #460F10",
"r c #4B0E10",
"t c #540F11",
"y c #5D0F11",
"u c #441112",
"i c #4C1112",
"p c #541212",
"a c #5C1212",
"s c #700F0D",
"d c #6C110F",
"f c #74110E",
"g c #7C120F",
"h c #630F11",
"j c #641212",
"k c #6C1313",
"l c #6D1916",
"z c #6E1818",
"x c #741413",
"c c #7C1413",
"v c #7B1816",
"b c #741618",
"n c #7A1718",
"m c #7B1A1B",
"M c #841513",
"N c #8B1615",
"B c #841916",
"V c #8C1916",
"C c #841618",
"Z c #8C1618",
"A c #841A19",
"S c #8C1A1A",
"D c #921716",
"F c #9C1617",
"G c #931916",
"H c #9B1A17",
"J c #931719",
"K c #941A19",
"L c #9C1B19",
"P c #A01B17",
"I c #A31C1B",
"U c #A91D1D",
"Y c #94211F",
"T c #9D201E",
"R c #A2211E",
"E c #AB211F",
"W c #9B1F20",
"Q c #972025",
"! c #9F2121",
"~ c #A62321",
/* pixels */
"                                                                ",
"                             .                                  ",
"                          ....                                  ",
"                          X.+                                   ",
"                          +. .      .                           ",
"                       ;;; ;;;   ;rX2  .                        ",
"                     #.a..#. .+upKL;z3.  +                      ",
"                    .i.##u::+iaWART;T!mp#+                      ",
"                    5l+11*aALUnKPKj5ILR~A!pu.+                  ",
"                  X@653jmL~EUIxVDjYjLLLLSUASm@XX                ",
"                 .SvBZKIUTULPPkxwNKjFHHLLPRPITlo+X              ",
"                 2VMJHLUPLUUPLx3BDDkLLHHLLLLLHRYa9  .           ",
"              .pnNhSFPPPUEUILFxjvZCpNGLEULHLPHDHKa# .           ",
"            +:pKJZGKHLIIUUIVSk1X. .@@:6kPELJFILFGxu.            ",
"            oSArxBDFHLIUUA0X.        . .1cLGNNJJVaQAp           ",
"         #. 5VVbawlJLIIZ2@               .*kBMMMN0K~m           ",
"         . 3bVMxxnVLUZ8. .                 .6c8503GHK+          ",
"       X# .bjCZVk5MLx-                       5aKTKHKLm;         ",
"      X4. 1jDJZZZLjA;                         5CNLIHHTj.        ",
"      #e;#xZDZZDKKm:                           :BHIPLHL2        ",
"      #p30SKDNDKN8X                             wHPRPHH5        ",
"      #pilSDNZZKn.                              ofLIPHHS*.      ",
"    ..@aujNNNNMS1                                0NLILGLj       ",
"    #.2AGVBVVKKa.                                &cHPHGGS.      ",
"    .;uxVMMSHKC.                                  0BHHDDK#      ",
"    . uKKVNKHV1                                   wNKKDDKp.     ",
"     +<NKHHHJZX                                   :MGGNDJv;     ",
"    .+2VHIIKD8.                                   1NGGNNMx.     ",
"     @aqSLLB5*                                    :VKKNNcC:     ",
"     #BKxBM6n7                                    2GDDDDkn:.    ",
"      vKHl*AKa                                    ujkkxcn*:     ",
"      kNjkLjxx                                    2aSSGSCx5     ",
"      kwlUILb7;                                   jBdGGGGNj.    ",
"      :lVLLLGBX                                  .jDVGGGGNk.    ",
"      =VMHPPLG;                                  5SNHGGDN6o     ",
"      .vVHPIPF<                                  qDKGDVDx1+.    ",
"       6VNGHHFl                                 .BGGGNGDp+.     ",
"       ;cNVDKHJ%                                2NGGNVVN:       ",
"       .wdNVNGHx                               .xNNNVVVg;       ",
"       X06BDDDHL1                              1BBNNGDV5+       ",
"        OixKGHGHAX                            obvBMNMZV#        ",
"        ;5xDGHHGHl                            jxBNNNMZS++       ",
"         ;vNDDKJJHp                          5ZZMNZMcx: .       ",
"        &wkNGxGDDDN5                       .17hkMMgMx2#X+       ",
"        .O1vNZDKNZc2aX                    .av6Cx5gBgj..         ",
"          .jNVHcdklHKx1                  XyBZ,Mgd8ch#           ",
"          .jMMNv22cDVHv6.               2MMZMrdgx68@            ",
"           *dfdqABNNZccvAtX           X5nMMZMd752*X.            ",
"            O25BVKGNMDMNNHVq .      +5kccMMcxgcx6.              ",
"             X$,gNNMNMNGBMDKvd1;je.tykCMcccfxj72                ",
"               @$5dggMMMMMVVZN8at=28McMgcnc686o .@.  .          ",
"               .=.%8gMGMNNMBZZyM;eh8MMMMMMvxk2   :bzpjr1.     #.",
"                ...X<cMMMMMMMM75j02kMMMMMgMMMNfbxCMMj55jky65i58.",
"X..X.@.@;;1:14puytrt8hxcMMMMgM6MNM2xMZZNMMMMMNDGSVNN6O*1qhvcvc6.",
"*r455tytp5e2wkxnMvNBncvMMMZMMM7gMMkfMMMMMMMMNMNNNNNMNMNBMj62OX. ",
"@:22:6t1tj2eqkjxBZBMcccccshcsM7ggcddggggMgggMMMBMMMMMgx7$..O.. .",
".  .+;#:#;;=o:1jkxfccxhj87*XX52x8>18gcssfffcggMNZMMMv5r2at454=.@",
"     .  X.@+#:XX2tt86>212$X.  .1   X12885226sxfggcMcccxk77e3   .",
"           .  . .+@;XX...X            ....@1<55,5,522%.         ",
"               .. ; @.                +..                       ",
"                                                                ",
"                                                                ",
"                                                                ",
"                                                                "
};
