/* XPM */
static char *result[] = {
/* columns rows colors chars-per-pixel */
"64 64 241 2 ",
"   c #020202",
".  c #0E0E0B",
"X  c #090A06",
"o  c #13120D",
"O  c #1A1507",
"+  c #141413",
"@  c #1B1B13",
"#  c #1D1C1C",
"$  c #181714",
"%  c #0F0F0D",
"&  c #221D09",
"*  c #201F15",
"=  c #1B2511",
"-  c #2C240B",
";  c #282006",
":  c #322A0B",
">  c #392E0A",
",  c #31270A",
"<  c #3C310B",
"1  c #22221D",
"2  c #2A261A",
"3  c #2C2A1B",
"4  c #272716",
"5  c #352D13",
"6  c #322D1C",
"7  c #34311D",
"8  c #3B3317",
"9  c #213212",
"0  c #242423",
"q  c #2C2B24",
"w  c #2B2B2A",
"e  c #272A24",
"r  c #312F25",
"t  c #2D3527",
"y  c #343123",
"u  c #33332C",
"i  c #38372E",
"p  c #3A3928",
"a  c #333332",
"s  c #3B3A34",
"d  c #3C3C3B",
"f  c #373735",
"g  c #2F3131",
"h  c #201F21",
"j  c #473A0D",
"k  c #463A14",
"l  c #453E23",
"z  c #403D31",
"x  c #2D441B",
"c  c #36531A",
"v  c #3E651A",
"b  c #3E423A",
"n  c #384F25",
"m  c #4E400E",
"M  c #57470E",
"N  c #594A15",
"B  c #53471B",
"V  c #604E0E",
"C  c #63510E",
"Z  c #624F12",
"A  c #645213",
"S  c #6B5612",
"D  c #6A5716",
"F  c #715C16",
"G  c #705C0F",
"H  c #44661D",
"J  c #786417",
"K  c #45412A",
"L  c #4D492D",
"P  c #4A4429",
"I  c #544C29",
"U  c #5A532C",
"Y  c #44433B",
"T  c #494837",
"R  c #524D37",
"E  c #465638",
"W  c #595537",
"Q  c #465E20",
"!  c #635B3A",
"~  c #695925",
"^  c #557937",
"/  c #4C6B33",
"(  c #73642E",
")  c #434443",
"_  c #4C4C4B",
"`  c #4C4C43",
"'  c #4A5441",
"]  c #545245",
"[  c #5D5B4C",
"{  c #585647",
"}  c #555554",
"|  c #5D5D5D",
" . c #5B5952",
".. c #524F41",
"X. c #615E54",
"o. c #615D4C",
"O. c #6A6547",
"+. c #736D49",
"@. c #79734A",
"#. c #6A6859",
"$. c #726F5B",
"%. c #73715E",
"&. c #797553",
"*. c #646463",
"=. c #6C6B68",
"-. c #777667",
";. c #777775",
":. c #6C7764",
">. c #5C6C50",
",. c #836B15",
"<. c #846D1A",
"1. c #886F17",
"2. c #8A7218",
"3. c #967B19",
"4. c #9A7D19",
"5. c #8C7828",
"6. c #827B4E",
"7. c #827B55",
"8. c #5B8835",
"9. c #588C2A",
"0. c #628F3D",
"q. c #659B37",
"w. c #609E29",
"e. c #6DA937",
"r. c #4B8116",
"t. c #7BCC2F",
"y. c #6A8C4D",
"u. c #76AA45",
"i. c #7DAD52",
"p. c #7E8E71",
"a. c #9D821A",
"s. c #9C8116",
"d. c #AC8C1B",
"f. c #A5861B",
"g. c #AE901C",
"h. c #B4931B",
"j. c #BC9B1D",
"k. c #B7951A",
"l. c #B18F1B",
"z. c #B99924",
"x. c #A98F30",
"c. c #A48C2F",
"v. c #C19D1C",
"b. c #C5A21D",
"n. c #CBA71D",
"m. c #D9B31E",
"M. c #D4AE1F",
"N. c #E3BB1F",
"B. c #C4A222",
"V. c #CBA821",
"C. c #D2AE25",
"Z. c #DBB522",
"A. c #D7B223",
"S. c #C4A737",
"D. c #E3BB22",
"F. c #E5BC27",
"G. c #F2C71F",
"H. c #EBC223",
"J. c #ECC42D",
"K. c #F4C922",
"L. c #F3C929",
"P. c #F4CE3D",
"I. c #8A8559",
"U. c #948D5A",
"Y. c #9B935E",
"T. c #928B47",
"R. c #87846C",
"E. c #9D9661",
"W. c #989267",
"Q. c #8B8978",
"!. c #99957D",
"~. c #908E7A",
"^. c #A39A67",
"/. c #8CAA6F",
"(. c #AEA56A",
"). c #A9A066",
"_. c #B3AA6E",
"`. c #B0A76D",
"'. c #ADA572",
"]. c #B4AA71",
"[. c #BEB473",
"{. c #BDB67C",
"}. c #A09D52",
"|. c #CAB155",
" X c #C2B97D",
".X c #C5B778",
"XX c #CDB762",
"oX c #AEC96A",
"OX c #B1E471",
"+X c #9BD950",
"@X c #F3D04F",
"#X c #F6D86B",
"$X c #F7DB75",
"%X c #EACE70",
"&X c #DBC46D",
"*X c #898989",
"=X c #9E9B82",
"-X c #939383",
";X c #999999",
":X c #A19D84",
">X c #9CAF8D",
",X c #AAA689",
"<X c #B7B185",
"1X c #B9B597",
"2X c #AEAF90",
"3X c #A7A8A7",
"4X c #BCBCBC",
"5X c #B9BAB7",
"6X c #AFB9A7",
"7X c #C5BC83",
"8X c #C4BD8B",
"9X c #C2BD9B",
"0X c #C7BF91",
"qX c #C3BEA0",
"wX c #BBE689",
"eX c #B4CF9E",
"rX c #C9C18B",
"tX c #CCC593",
"yX c #CCC69B",
"uX c #D1CA9D",
"iX c #D1D695",
"pX c #FAE392",
"aX c #FAE188",
"sX c #CEC9A0",
"dX c #C9C4A6",
"fX c #D2CDAB",
"gX c #D4CDA4",
"hX c #D7D6AC",
"jX c #DBD6B3",
"kX c #DCD9B9",
"lX c #C2CABD",
"zX c #E0DCBD",
"xX c #D5E4AD",
"cX c #C6E996",
"vX c #C9C9C9",
"bX c #D7D5CA",
"nX c #E2DEC4",
"mX c #E4E3C8",
"MX c #EBE9D6",
"NX c #E1F4C9",
"BX c None",
/* pixels */
"BXBXBXBXBXBXBXBXBXBXBXBXBXBXBXBXBXBXBXBXBXBXBXBXBXBXBXBXBXBXBXBXBXBXBXBXBXBXBXBXBXBXBXBXBXBXBXBXBXBXBXBXBXBXBXBXBXBXBXBXBXBXBXBX",
"BXBXBXBXBXBXBXBXBXBXBXBXBXBXBXBXBXBXBXBXBXBXBXBXBXBXBXBX| #.| | | *.| BXBXBXBXBXBXBXBXBXBXBXBXBXBXBXBXBXBXBXBXBXBXBXBXBXBXBXBXBX",
"BXBXBXBXBXBXBXBXBXBXBXBXBXBXBXBXBXBXBXBXBXBXBXBXBXBXBXL 8 8 8 8 8 : - #.BXBXBXBXBXBXBXBXBXBXBXBXBXBXBXBXBXBXBXBXBXBXBXBXBXBXBXBX",
"BXBXBXBXBXBXBXBXBXBXBXBXBXBXBXBXBXBXBXBXBXBXBXBX;.6 I S.%X|.M.b.V.d.4.~ 6 s BXBXBXBXBXBXBXBXBXBXBXBXBXBXBXBXBXBXBXBXBXBXBXBXBXBX",
"BXBXBXBXBXBXBXBXBXBXBXBXBXBXBXBXBXBXBXBXBXBX .Y 5.z.S.#XaX#Xh.C N.N.b.4.<.J R Y *.BXBXBXBXBXBXBXBXBXBXBXBXBXBXBXBXBXBXBXBXBXBXBX",
"BXBXBXBXBXBXBXBXBXBXBXBXBXBXBXBXBXBXBXBXBX#.5.6.XX#X$XaX#XP.a.> A.K.D.b.d.f.F A ! BXBXBXBXBXBXBXBXBXBXBXBXBXBXBXBXBXBXBXBXBXBXBX",
"BXBXBXBXBXBXBXBXBXBXBXBXBXBXBXBXBXBXBXBX-.J F.aXpXaX%X#XP.K.4.> A.G.K.D.n.b.h.l.<.U X.BXBXBXBXBXBXBXBXBXBXBXBXBXBXBXBXBXBXBXBXBX",
"BXBXBXBXBXBXBXBXBXBXBXBXBXBXBXBXBXBXBX$.A z.z.|.[.|.z.B.N.K.s.> A.G.M.j.v.k.3.<.<.F l BXBXBXBXBXBXBXBXBXBXBXBXBXBXBXBXBXBXBXBXBX",
"BXBXBXBXBXBXBXBXBXBXBXBXBXBXBXBXBXBXo.2.a.> - 5 5 4 , < g.H.s.> C.N.,., , , & & & < ,.B BXBXBXBXBXBXBXBXBXBXBXBXBXBXBXBXBXBXBXBX",
"BXBXBXBXBXBXBXBXBXBXBXBXBXBXBXBXBX[ c.C.Z.d.d.d.d.d.d.a.C a.a.> b.G ,.k.h.2.,.,.1.2.f.1.U ] BXBXBXBXBXBXBXBXBXBXBXBXBXBXBXBXBXBX",
"BXBXBXBXBXBXBXBXBXBXBXBXBXBXBXBX#.5.|.@XL.H.H.H.H.H.H.H.d.b.a.> n.d.b.G.H.m.M.m.M.n.l.f.<.! *.BXBXBXBXBXBXBXBXBXBXBXBXBXBXBXBXBX",
"BXBXBXBXBXBXBXBXBXBXBXBXBXBXBXBX8 Z.$X$X@XK.K.K.K.K.K.K.K.K.a.> A.K.K.K.K.G.K.K.K.D.h.d.d.S d BXBXBXBXBXBXBXBXBXBXBXBXBXBXBXBXBX",
"BXBXBXBXBXBXBXBXBXBXBXBXBXBXBXBX8 C.$XpX$XL.K.K.A.j.z.b.H.G.g.A m.K.M.j.j.b.N.G.K.N.k.d.d.S s BXBXBXBXBXBXBXBXBXBXBXBXBXBXBXBXBX",
"BXBXBXBXBXBXBXBXBXBXBXBXBXBXBXBX7 C.$XpX$XL.K.m.J O O - d.H.H.m.K.N.F & & - g.H.K.D.k.d.d.S z BXBXBXBXBXBXBXBXBXBXBXBXBXBXBXBXBX",
"BXBXBXBXBXBXBXBXBXBXBXBXBXBXBXBX5 C.$XpX$XK.F.G 2 h 0 1 : a.J.H.Z.S 3 h * 0 5 s.K.N.k.d.d.S z BXBXBXBXBXBXBXBXBXBXBXBXBXBXBXBXBX",
"BXBXBXBXBXBXBXBXBXBXBXBXBXBXBXBX8 A.$XpX$XL.m.j | *Xs w 1 8 C Z N 3 e f Y 9.9 1.K.N.k.l.d.S f BXBXBXBXBXBXBXBXBXBXBXBXBXBXBXBXBX",
"BXBXBXBXBXBXBXBXBXBXBXBXBXBXBXBX8 C.$XaX@XF.4.8 =.3XQ.8.b 0 + % + e =.p.0.q.t ~ z.D.h.d.d.S s BXBXBXBXBXBXBXBXBXBXBXBXBXBXBXBXBX",
"BXBXBXBXBXBXBXBXBXBXBXBXBXBXBXBX5 C.#X@XL.n.- a ) ;.lXt.0.b w w g | 6XeXe.' Y * M V.l.d.d.D s BXBXBXBXBXBXBXBXBXBXBXBXBXBXBXBXBX",
"BXBXBXBXBXBXBXBXBXBXBXBXBXBXBXBXl B.J.L.H.z.5 u d ) >.t.t.8.d ) _ 6XwXu.' z d * j 4.d.d.f.D _ BXBXBXBXBXBXBXBXBXBXBXBXBXBXBXBXBX",
"BXBXBXBXBXBXBXBXBXBXBXBXBXBXBXBXBXU z.K.d.M a.k $ e Y ' / ' ) ) ) *.>.' d # $ F 1.j 3.f.Z { BXBXBXBXBXBXBXBXBXBXBXBXBXBXBXBXBXBX",
"BXBXBXBXBXBXBXBXBXBXBXBXBXBXBXBXBXBX( Z j - n.g.3.D 0 d ) ) ) ) ) ) ) g 8 <.3.V.4.O j j X.BXBXBXBXBXBXBXBXBXBXBXBXBXBXBXBXBXBXBX",
"BXBXBXBXBXBXBXBXBXBXBXBXBXBXBXBXBXBXw 2 P U 2.b.M.l.Z r 0 0 g d w e 0 p F n.A.l.J R l % _ | | *.BXBXBXBXBXBXBXBXBXBXBXBXBXBXBXBX",
"BXBXBXBXBXBXBXBXBXBXBXBXBXBXBXBXBX_ i &.{.Y.4 2.k.b.V.j 5 & # g . - < J V.k.h.M L '.I.` ) g # 0 =.BXBXBXBXBXBXBXBXBXBXBXBXBXBXBX",
"BXBXBXBXBXBXBXBXBXBXBXBXBX*.r r ` 2XyXyXyXY.4 a.v.n.D.A.b.A * u - 3.n.b.h.k.B.N R ,Xi 3XbX;X} _ w =.BXBXBXBXBXBXBXBXBXBXBXBXBXBX",
"BXBXBXBXBXBXBXBXBXBXBX) Y Q.2X,X1XfXtX X{.Y.@ - 3.n.k.k.C ,.J : a.N 1.h.h.n.C O ..:Xe } *.*XvX4Xs 0 d #.BXBXBXBXBXBXBXBXBXBXBXBX",
"BXBXBXBXBXBXBXBXBX*.=.R.Q.9XzXjXjXjX7X.XY.I D S A m M b.f.J j O M 2.z.a.m M S S ~ o.-.a # d *.X.+.+.+.+.*.=.BXBXBXBXBXBXBXBXBXBX",
"BXBXBXBXBXBXBXBX=.| ~.nXmXmXzXjXhXyX X[.@.: d.h.j   4 1.A.f.j O S n.z.A o X J d.S y 1X-.[ ] L W ^.[.[.^.W R -.BXBXBXBXBXBXBXBXBX",
"BXBXBXBXBXBXBXf !.nXMXMXMXMXnXhXuX.X[.[.@.: n.j.m + e & 2.k.F & a.h.N @ * o ,.d.S y qXjXjXyX7X X[.[.[.[.[._.L =.BXBXBXBXBXBXBXBX",
"BXBXBXBXBXBXBXa =XmXMXMXMXnXjXuX.X[.`.).@.j M.j.m * ` w * O O o O o * q q O 1.l.F l 2XqXfXjXjXhX8X.X[.[.[.[.L *.BXBXBXBXBXBXBXBX",
"BXBXBXBXBXBXBXs 2XMXMXnXzXjXtX.X[.(.BXBXN b.D.j.m k x.{ q % r +.+ * 0 I ~ & d.b.4.J BXBXQ.jXkXmXjXrX[.[.[._.L #.BXBXBXBXBXBXBXBX",
"BXBXBXBXBXBX=.Q.dXnXnXjXhXyX X[.^.R BXBXM H.H.j.m l Y.x.x.k l U.* N <.~ l & h.n.l.1.BXBXBXR.kXMXmXhXrX[.[.[.U.#.BXBXBXBXBXBXBXBX",
"BXBXBXBXBXBXu 1XkXjXjXjXuX.X.X^.+.BXBXBX3.G.G.j.m w 7.T.x.l T ^.& I ( I 1 O h.Z.v.4.j BXBXBX!.nXmXzXgXrX.X[..X+.z BXBXBXBXBXBXBX",
"BXBXBXBXBXBXg 1XkXjXhXuX.XY.I.&.BXBXBX4.F.D.Z.k.S p } s W 7 T ,X* 8 y 1 2 j b.F.n.d.s.j BXBXBX:X,XqXkXgX[.[.[.+.b BXBXBXBXBXBXBX",
"BXBXBXBXBXBXu 1XjXjXuX.X^.R BXBXBXR g.H.N.j.j.h.f.D o 2 a.N Y !.* D k % , B.N.n.h.h.h.f.D BXBXBXu R.dXfXrX[.[.+.b BXBXBXBXBXBXBX",
"BXBXBXBXBXBXu 1XhXuX.XE.T BXBXBXBXx.D.H.D.Z.D.D.b.G 2 ~.W @ $ e % & ! ! > n.n.k.v.Z.Z.Z.z.( BXBXBX=.-.gXgX X_.+.d BXBXBXBXBXBXBX",
"BXBXBXBXBX_ u ..'. XU.{ BXBXBXBXBXm M Z M G k.B.k.F q 1X=X-X~.Q.Q.7.E.@.> A.D.m.d.A M M N > $ *.BXBX*X$.sX{.@.y w =.BXBXBXBXBXBX",
"BXBXBXBXBX# _ w R O.P BXBXBXBXBXBXBXBXBXBXO M Z Z U W &.<XxXNXkXhXOXT.! ! <.2.2.M BXBXBXBXBXBXBXBXBXBX0 #.+.y # 1 # BXBXBXBXBXBX",
"BXBXBXBXBXq =._ 1 % . w BXBXBXBXBXBXBXBXBXBX2 7 6 ! U.3 u.OXcXzXcX+Xv P U.l 7 7 4 BXBXBXBXBXBXBXBXBXBX$ h $ h w h # BXBXBXBXBXBX",
"BXBXBXBXBXt :._ d a e q n BXBXBXBXBXBXBXBXBXY.`.(._.E.2 '.OXwXNXOXoXR K _.(.`.(.O.BXBXBXBXBXBXBXBX-.g ` *._ g e t # BXBXBXBXBXBX",
"BXBXBXBXBXx e.' _ ) ) E w.E BXBXBXBXBXBXBXBX1X X[.[.Y.2 !.xXxXzXiX[.I K [..X[.[.@.BXBXBXBXBXBXBX*.9.9.} ;.} f / 9.2 BXBXBXBXBXBX",
"BXBXBXBXBX1 8.u.>X4X>Xe./ = BXBXBXBXBXBXBXBX1XrX.X[.U.4 u.cXzXxXhXoXH T yXyX X[.@.BXBXBXBXBXBXBX) n y.i.lXlX/.9.v h BXBXBXBXBXBX",
"BXBXBXBXBX$ ' i.6X5X>Xy.t = } BXBXBXBXBXBXBX9X7X[..XY.4 }.wXxXmXwX+XQ R fXhX7X[.@.BXBXBXBXBXBXBXd ) y.i.3X6Xp.^ 0 # BXBXBXBXBXBX",
"BXBXBXBXBXh _ ;.;.*.) d w w + } BXBXBXBXBX[ 9X7X[.^.7...>XOXcXNXOXoX+.{ ,XgX X[.I.T BXBXBXBXBX0 g *.;.;.} ' ) f 0 h BXBXBXBXBXBX",
"BXBXBXBXt ) _ =.;.| ) d g t = BXBXBXBXBXBXdXhX7X.X6.y 1XhXhXhXhXiX X_.+.s tXrX[.].U.BXBXBXBXBX0 b *.;.;.=._ ) f e t 1 BXBXBXBXBX",
"BXBXBX_ v q.' } } } _ ) f w.c BXBXBXBXBXBXfXhX7X].+.r 1XjX0X.X7X{.]._.+.y 1XrX[..XU.BXBXBXBXBXt 9.0.} } | _ _ d n w.9 BXBXBXBXBX",
"BXBXBX} x 0.i.6X4X4X4X6Xu.8.E d BXBXBXBX..bXjX7X6.2 o z R z z l K l K 2 o ..,XrX.XU.BXBXBXBX} a / q./.5X4X4X4X>Xq.H = BXBXBXBXBX",
"BXBXBX_ 0 ' u.3X3X3X3X>Xy.n f 0 a BXBXBX_ mXjXI.i + % X j , ; j O m , X + # [ W.[.Y.BXBXBXBX$ d ) ^ i.3X3X3X3X/.8.t + BXBXBXBXBX",
"BXBXBX_ 0 ) b ) ) _ ) ) g e w # a BXBXBX;.nXfXs * w h O l.F N v., d.D o w 0 o +..XE.L BXBXBX$ d ) ) ) _ ) ) ) d w h o BXBXBXBXBX",
"BXBXBXBXt ' ) ) ) ) ) d w w g 4 a BXBXBXmXMXfXf 0 d 0 - h.F j 4.- d.,.2 f 0 . -.uX[.^.p BXBX= b _ ) ) ) ) ) ) f w t + BXBXBXBXBX",
"BXBXBXBXH q.' ) _ _ _ _ g t 8.r.u BXBXBXMXMXdXz 0 w - z.F.D O ; O z.A.5.$ 0 . -.tX[.(.3 BXBX9 w./ _ _ _ _ ` _ d n w.9 BXBXBXBXBX",
"BXBXBXBXx 8.i.6X4X4X4X6Xu.w.9.x a BXBXBXMXdX .a z r 3 XX#X( 5 <.& |.#XT.o 0 # u &.].`.6 BXBX@ ^ e.>X4X4X5X4X5X>Xq./ = BXBXBXBXBX",
"BXBXBX:.) x 8.-X;X;X;Xp.9.r.x % a BXBX;.nX2X0 ) ) l 6.iXY.z ~ z.5 o..X.X! 1 0 + T 7X`.q BXBX. e v p.*X*X3X3X;Xp.v 9 L :.BXBXBXBX",
"BXBXs !.R.4 X # h h 2 3 X X = = g BXBX-.jX1X0 } f I $X%Xl + ( S.l % 6.$XXX@ # + BXuX].3 BXBXo 2 . X @ s a 0 0 + % Y Y.L BXBXBXBX",
"BXBXs !.8X+.. # % o R I.o   ! &.T BXBX7.fX:Xe | z k F.F.k + +..Xs . 2.L.B.& h + Y 1X].L BXBXK U.e   ` =Xq X + + q 2X{.L BXBXBXBX",
"BXBXa !.tX6.q 3Xz  .<XE.@   $.8X7.BX~.qX=Xw d *.d Z F.D.j # +..Xz o 2.K.B.O h 0 0 R 1X1X| [ 2X(.3   ] yXU.2 ;.*Xi 9X7XL BXBXBXBX",
"BXBXa !.tX6.a vX} %.uXE.@   :.sX^.2 :XzX~.+ d _ w j F.D.j N S.@Xx., 1.K.B.& w g # q qXkX[ ..uX`.3   ] sX'.y ;X;Xi 9X{.L BXBXBXBX",
"BXBXa !.tX6.u vX_ $.sXE.@   %.uXE.3 =X:X{ w z ) # M H.D.j <.b.a.M.j 1.K.v.& a a * 0 %.1XX.] sX].q   { sX'.y ;X;Xi 9X7XL BXBXBXBX",
"BXBXa !.tX6.i vX_ $.uXE.@   %.uXE.3 =X#.4 O.&.$.U A d.f.: A 5.BX3., Z z.a.B O.O.! P * :X[ ] uX'.3   ] sX`.3 ;X;Xs 9X<XL BXBXBXBX",
"BXBXa =XtX6.a vX_ %.sXE.*   %.sXE.3 =X-.B S..X.X|.5.BXBXBXBXBXBXBXBXBXBXB x.XX XXXc.p ,X[ ] uX`.3   ] sX].r ;X;Xi 9X{.P BXBXBXBX",
"BXBXBX!.tX6.u vX_ %.sX^.@   %.uXY.2 !.1X7.5 2 6 4 BXBXBXBXBXBXBXBXBXBXBXBX8 r 3 - l =XdX{ ] sX].3   ] sX(.7 ;X;Xi 9X7XP BXBXBXBX",
"BXBXBX!.tX6.a vX_ %.uXE.@   %.sXY.4 u T u   . #.T BXBXBXBXBXBXBXBXBXBXBXBXBX#.Y   . z T # ] sX(.3   ] uX'.y ;X;Xs 1X7XL BXBXBXBX",
"BXBXg W.7X7.a vX] O.rXE.&   +.8XY.@   u O.W W #.#.O.W W BXBXBXBXBXBX-.O.W W #.#.O.W R o   T 8X(.3   T 8X(.7 ;X;Xu <X[.L *.BXBXBX",
"BXBXf &.^.&.f 6X_ { ^.R.2 + [ ^.R.y w Q.fX8X<X[ ~.fXrX<X| BXBXBXBX=.-XfXrX<X[ !.fX8X<X] a #.8X<X] a o.^.W.y *X*Xu E.^.T  .BXBXBX",
"BXBXBXBXBXBXBXBXBXBXBXBXBXBXBXBXBXBXBXBXBXBXBXBXBXBXBXBXBXBXBXBXBXBXBXBXBXBXBXBXBXBXBXBXBXBXBXBXBXBXBXBXBXBXBXBXBXBXBXBXBXBXBXBX"
};
