/* XPM */
static char *result[] = {
/* columns rows colors chars-per-pixel */
"64 64 255 2 ",
"   c #040000",
".  c #0B0001",
"X  c #08030A",
"o  c #130101",
"O  c #1C0101",
"+  c #1B0608",
"@  c #230001",
"#  c #2C0103",
"$  c #2B040B",
"%  c #27090B",
"&  c #340103",
"*  c #3C0104",
"=  c #35060A",
"-  c #3C040A",
";  c #2B0B14",
":  c #350913",
">  c #2A1819",
",  c #38151A",
"<  c #2D1A20",
"1  c #381B23",
"2  c #392A2A",
"3  c #430204",
"4  c #4B0204",
"5  c #44030A",
"6  c #4C040B",
"7  c #4A0A0C",
"8  c #530204",
"9  c #5C0204",
"0  c #55040B",
"q  c #5B040B",
"w  c #580908",
"e  c #5C0A0D",
"r  c #4D100F",
"t  c #480A15",
"y  c #590A15",
"u  c #47131B",
"i  c #58131A",
"p  c #670607",
"a  c #64040C",
"s  c #6C030B",
"d  c #770308",
"f  c #74020C",
"g  c #6D120E",
"h  c #680715",
"j  c #640C14",
"k  c #6D0C14",
"l  c #780915",
"z  c #68131D",
"x  c #781318",
"c  c #590F21",
"v  c #481623",
"b  c #591826",
"n  c #661425",
"m  c #641C2C",
"M  c #6D1C2C",
"N  c #781727",
"B  c #711328",
"V  c #47282D",
"C  c #5A2429",
"Z  c #502832",
"A  c #493636",
"S  c #593639",
"D  c #64232C",
"F  c #75222B",
"G  c #682835",
"H  c #762737",
"J  c #7C2C3D",
"K  c #6A363E",
"L  c #75313D",
"P  c #5C3540",
"I  c #683B44",
"U  c #763745",
"Y  c #4F4646",
"T  c #594848",
"R  c #79414A",
"E  c #724A51",
"W  c #675B59",
"Q  c #7A605F",
"!  c #7D6E6D",
"~  c #85040A",
"^  c #970308",
"/  c #860815",
"(  c #940314",
")  c #980817",
"_  c #9B041B",
"`  c #861319",
"'  c #98151A",
"]  c #A90407",
"[  c #B3070B",
"{  c #A40617",
"}  c #AC041C",
"|  c #B7061A",
" . c #B5031C",
".. c #A3161B",
"X. c #9B0C26",
"o. c #881528",
"O. c #88122D",
"+. c #971827",
"@. c #981B35",
"#. c #AA0824",
"$. c #BC0422",
"%. c #B80927",
"&. c #A71928",
"*. c #B71728",
"=. c #B90F33",
"-. c #AA1834",
";. c #B91536",
":. c #89222B",
">. c #912E2E",
",. c #842939",
"<. c #96293B",
"1. c #B6222B",
"2. c #A72537",
"3. c #AC2E35",
"4. c #B82737",
"5. c #CB0612",
"6. c #E70D1A",
"7. c #C40424",
"8. c #CC042B",
"9. c #C7082A",
"0. c #D3072E",
"q. c #C41529",
"w. c #D91E2B",
"e. c #CA0B32",
"r. c #D30A32",
"t. c #D80935",
"y. c #DC0D3A",
"u. c #C71638",
"i. c #CB1A3B",
"p. c #D3143B",
"a. c #D81538",
"s. c #DC133D",
"d. c #EF1F2F",
"f. c #E20D3A",
"g. c #E2143D",
"h. c #CC2A37",
"j. c #C62938",
"k. c #F12E33",
"l. c #BC1E44",
"z. c #892D42",
"x. c #8B3746",
"c. c #963448",
"v. c #96384A",
"b. c #B82946",
"n. c #A23948",
"m. c #B2344C",
"M. c #B93754",
"N. c #DC0F43",
"B. c #CA1C43",
"V. c #D91943",
"C. c #DB1C42",
"Z. c #E61945",
"A. c #E41B44",
"S. c #F01F4A",
"D. c #C52747",
"F. c #DC244A",
"G. c #D82849",
"H. c #CA3648",
"J. c #D83A49",
"K. c #D72C51",
"L. c #CB3958",
"P. c #D63958",
"I. c #E5234B",
"U. c #E6264A",
"Y. c #E9244C",
"T. c #E42C53",
"R. c #EC2B52",
"E. c #E92855",
"W. c #F52A53",
"Q. c #E83659",
"!. c #EB355A",
"~. c #F2365B",
"^. c #D73D61",
"/. c #EA3C62",
"(. c #F23C63",
"). c #854753",
"_. c #8F4C55",
"`. c #974857",
"'. c #A84757",
"]. c #B9495A",
"[. c #A35357",
"{. c #935B65",
"}. c #B24E62",
"|. c #A65965",
" X c #B8586A",
".X c #8F6C70",
"XX c #AF6D78",
"oX c #C7475A",
"OX c #D04C55",
"+X c #DA4856",
"@X c #E3485A",
"#X c #FA4D50",
"$X c #E7555E",
"%X c #C94A65",
"&X c #D64766",
"*X c #CC566A",
"=X c #D8556A",
"-X c #CF5C76",
";X c #E64666",
":X c #ED4364",
">X c #EC4B6B",
",X c #F34365",
"<X c #F4486A",
"1X c #E75766",
"2X c #F34F71",
"3X c #E95777",
"4X c #F35877",
"5X c #CD6C77",
"6X c #D86678",
"7X c #E8636B",
"8X c #E86777",
"9X c #ED6C7B",
"0X c #8B807C",
"qX c #F9807C",
"wX c #B37683",
"eX c #F05B82",
"rX c #D86A84",
"tX c #CB7A89",
"yX c #D77688",
"uX c #EB6886",
"iX c #F36483",
"pX c #F36B89",
"aX c #EA7789",
"sX c #F2748C",
"dX c #E77C97",
"fX c #F47B95",
"gX c #A88B8A",
"hX c #B08F8E",
"jX c #B79597",
"kX c #B6A5A4",
"lX c #CC8C94",
"zX c #E7858D",
"xX c #E98996",
"cX c #F48797",
"vX c #F48D91",
"bX c #E6949A",
"nX c #C59AA2",
"mX c #D69BA5",
"MX c #F48CA2",
"NX c #E899A7",
"BX c #F699A6",
"VX c #DAA7AB",
"CX c #CEAEB0",
"ZX c #E9A7AC",
"AX c #F5A8A8",
"SX c #E9A7B2",
"DX c #EBB4B9",
"FX c #F4B7B9",
"GX c #D6C1BD",
"HX c #F1BCC4",
"JX c #EAC6C8",
"KX c #F5C8C8",
"LX c #EBD8D9",
"PX c #F2D1D4",
"IX c #F7E4E6",
/* pixels */
". + o . o @ * 0 9 p d d ^ ] 5.6.k.#X#X#Xk.d.6.5.[ ^ d 3 9 9 4 * * * - & - t * * # # & & $ & & & - & & # @ # & 7 u u C C C C C V ",
". + o . O @ - 9 d s d d ^ 5.6.k.qXbXqX$Xq.' g p 8 3 * @ @ # * 3 3 3 4 - - 5 * * # # # & $ & & & & & # # # & & t u C C G K C C S ",
". + o O @ # e d ^ ^ ^ ^ ^ 6.k.qXAXqX+.4 * w w 8 3 * & 3 5 * 6 0 0 0 a 5 & * & & & # @ & & & = & & @ @ @ @ @ $ t C G K R R S C S ",
"O O @ @ # 3 l ~ ^ ] ] ] 5.6.k.$X5X'.e # & 3 3 8 p s s d d f k k y h h 0 9 0 6 6 5 * * - - & & - - @ @ @ @ @ # t m G ).{.R F S K ",
"O @ @ @ & 6 k f d ^ ] [ 6.d.k...x 7 # o # g '.=Xq.q.*.^ ' ~ d g a a a d / d a 9 8 3 3 * & * - & = # O @ O O # - i D R {.R L L K ",
"o @ @ @ & 8 z 8 p d p p d d ~ 7 # O O O & ~ ..' @XAX9X......` ` ` ` ` ` ' / k a w 8 * & & & & # $ @ @ @ O O O - y D H R ).L K R ",
"O O @ @ * r b 4 * & & * * 3 d w @ O & 8 d ' [ [ *.' >.1.+Xh.$X$Xh.h.w.1...` / l k j e 5 - * & # # @ O o o . O & 5 c D G ).L L K ",
"O O @ @ & y y 9 4 8 8 4 3 @ # & @ * 9 { [ ) ' ^ ^ ....qXKXAXKXKXFXvXvXvX7XOXj.1.&.' x a 6 3 3 # # @ @ o o o O # : t C D L R L K ",
"O O O O @ = - & & * * & # # @ & * 8 p ~ ) *.1.j.8XxXbXjX.XW T S Y T Q .XjXNXxXvX>X+X3.` g e 0 * @ @ # O o . o $ - t b m I {.U U ",
"@ @ o o O O o O @ @ @ @ # 3 6 3 3 a l d ..h.vXlX! V r N 2.=.u.p.a.r.;.-.O.M S ! GXJXDX4.` ` k y 4 * $ # O o @ = t b m m U E m G ",
"@ @ O o O O o O O @ @ & 5 k x l g ~ ) 3.@XXXS i @.p.0.8.8.$. .$.$.$.r.8.8.Z.V.-.i A kXvXJ.h...l k y 5 - # # # - b m P U {.P m m ",
"@ @ @ O O O O @ O O @ * a ) ....[ *.+X=XK z i.Z.t.8.$.$.{ _ ( ( _ =.9.%.9.t.f.f.A.u.z I lXcXH.&.@.x h 0 & & - i m M U {.{.m M m ",
"O O # @ @ @ @ @ @ # 3 0 f ) *.J.4X1X.Xu l.Z.y.%.%.%.#.f 9 s ) / u.K.u.p.8.e.N.t.t.t.y.B.t .XHX+XH.X.2.` 4 4 t b m G P wXE G B m ",
"O @ $ @ @ @ @ & 3 0 a d { 7.$XKXLXT B F.N.Z.r.%.B.G._ l / q.%.u.u.+XT.s.A.B.j.F.A.g.0.f.V.N T VXvX+X&.' h y i m G G wXwXU J B B ",
"O @ % @ @ $ & * 4 s f ( *.w.vXLXA z.(.E.y.Z.$.#.i.Q.i.K.C.s.s.s.C.C.!.@.= . o $ z B.N.f.y.N.-.V ZXzXJ.1.` N N H J {.wXU J H M m ",
"O O % @ @ = & * 8 l / ' | k.ZXA @.!.E.Z.E.Z.e.C.@XT.U.R.I.A.i.b.D.H.i       . D N i ;.N.t.t.y.;.V GX9X@X&.:.,.U |.wXR J J J H B ",
"O O @ @ @ - 5 y h ` ..j.J.9XA +.y.g.R.i.%.$.a.a.R.Q.H.N o.N <.@.<.,           M !./.4.R.Z.8.7.A.-.A LXvX4.3.<.[.jX[.x.,.J J H H ",
"@ @ @ # & * * 4 h 3.J.AXFXW B V.U.t.U.%.%.a.R.,Xb.N :.P.T.E.N.y.Z.$           + K.Z.A.Y.t.#.} 8.I.@.{.PX+X].[.lX|.`.`.,.,.,.J J ",
"@ # # # & & * 3 x ZXFXKXhXr a.F.G.C.R.e.p.R.G.x c.^.Q.p.e.9.e.y.Z.$             c B.t.8.$._ ( $.F.!.<.CXFX6XtXtX[.'.'.v.z.z.z.z.",
"# = # # & & & & j 5XJXJXu u.t.r.U.U.U.r.T.b.M L./.Q.C.( l _ ) e.W.n           u L.G =.t. ._ +.-.D.P.1XXXDXzXZXwX X}.'.v.c.x.c.x.",
"# $ @ @ # @ & 3 a 4.8XE N 0.7.7.T.s.N.Z.D.F &X~.!.F.#.3 e ;.*.U.~.K.;       + M.E.;Xz.-.u.&.@.3.H.&XeXrXmXHXHXtX5X X}.'.v.v.`.`.",
"# & # # & * 6 0 k 4.8X> p. ...u.G.p.~.H.F ;X,XQ.i._ s e &.u.G.U.E.!.>Xc.J H L.!.Y.Z.C.@.L.+XM.n.].=XuXsXtXPXPXxXlX5X X}.'.'.|.hX",
"# # & & - h O.` +.1X_.N r.~ l G.a.P.;XB 3X>X:XF./ 9 ) G.#.j.G.R.~.<X<XQ.T.R.!.E.y.%.9.E.b.;X>X*X5XtXxXMXmXLXPXSXNXxX5X X XXXjX|.",
"3 4 4 4 q h 2.*XH.cX1 B.#.4 3 2.G.2Xx.M.2X2X>XG._ _ F.K.K.;X@XT.Q.,XR.7.9.r.p.e._ f ( I.&X%XeXdXDXVXVXSXHXPXIXHXDXSXVXVXnXgX{.x.",
"4 4 9 a f l -.6XBXlXr T.( & 8 B.:XP.H :X~.<X>X!.q.u.Q.K.Q.Q.U.R.R.~.q.~ ~ _ 9 3 4 q / V.,X%XeXBXmXrXrXrXrXdXLXSXyXtX*X|.}.v.x.z.",
"9 8 8 9 a s o.MXvXQ +.R.u.3 l y.~.<.oX~.!.R.~.~.#.G.,X4XQ.U.a.g.R.R.) s  .h.-./ / s f ;.^.3XrXAXdX%X%X-XeXeXmXHXrX*X}.].n.x.,.H ",
"^ 9 0 9 4 j ` ZXFXA D.Y.9.X.X.r.<XL >X(.R.~.~.T.*.:X4X4XI.s.U.R.g.a.%.{ *.U._ s / t 9 &.P.3XrXHXrX%XM.M.L.^.wXHX6XoX'.n.:.N z n ",
"7.^ f f g x +.7XVX, F.s.9.%.=.W.L.<.R.!.R.,X2XQ.C.1X<XU.g.R.Q.D.j.U.S.a._ _ ( y 4 - 5 o.K.>XaXHXeX%XM.M.l.K.z.PX-XM.>.,.j 0 4 3 ",
"] ^ ~ [ { ' ..7XCX, U.r.} 9.Z.~.2.oXR.Z.g.<X4X!.:X9X,XU.Y.4.%     $ b.Z.7./ / 5 t 3 * o.M.&XrXHXeX%XL.l.-.N.c mXOX3.N M 5 & @ @ ",
"d p p ~ ~ ^ j.9XCXi ~.a. .e.Y.~.+.oX!.s.Y.,X4X2X,X:XU.,XL.o         X D.A.$.D.D.X.h 4 l b.&XeXDXeXM.M.M.#.e.c jX+X' e r # O o . ",
"9 4 4 g x ^ j.vXgXi ,XR.r.a.+.W.o./.(.I.W.,XpX4X2X,X~.,XL         X X M S.Z.(.>XK.` * l D./.eXSXeX^.M.l.;.e.j gX7X' e r @ .     ",
"8 * 3 g ` ' 1.qXgXi >XQ.g.-.:.W.N b.b.K.<X<XiXcXuX2X,X<XD             v W.Y.Q.<X!.` @ h &X>XeXmXdX&XM.B.V.8.z gX7X' j 7 O       ",
"3 * 3 d ` &.*.7XjXi g.y.f.o.B W.t     . N 2XeXMXfXiX,X,XM     X     X m W.Z.!./.@X&.o @ c.iX3XtXMX=Xm.l.F.N.h wXL.+.g = + .     ",
"# & 3 p ` 4.*.$XkXc s.7.0.o.% b           n.eXpXfXcX2X,XL.o       X X L.(.(.2X(.T.;.- @ y P.>X6XSX-XM.b.V.N.c hX@X' g * O .     ",
"@ # & 4 ` 1.7XAXCX: s.8.8.&.              1 iXeXpXMXfX2X4XM.; X   ; '.(.,X<X2X<XU.#.8 O 9 =.Q.%XxXdX}.M.F.Z.- CX$X' r = @ .     ",
"o o o @ w 1.AXDXJX; y.8.8.B.O       X     ; uXiXpXfXMXMXfXfXeX=X%XeXeXeX4X9X>X!.%.~ 4 & / r.b.%X-XmXtX%XT.Y.: DXh.g * & O o .   ",
". . . @ 7 o.OXbXIX2 l.9.7.0.O.            m <XiXpXfXMXMXcXfXsXuXiXiX4XpXBXNX:Xs.| ) p a #.y.B L.L. XVX-X/.T.C xX1.w - $ O .     ",
". . . @ 5 k 2.H.DXW @.e.}  .a.o.        ; ^.,X<XpXpXpXMXMXMXsXpXpXiXpXfXcX4X~.Y.y.r.| ] 7.;.o.u.l.'.wXdX3XL.).1X' 8 & @ O .     ",
"    o o & e +.J.DXjXt r.} _ $.y.B.N % E uX(.(.<XeXpXpXsXfXdXfXfXpXsXcXcX2X~.W.k.i.i.r.8.y.N u.=.@.n.}.SXrX].lX1X' w & O o .     ",
"  . o O @ = z ..yXPX> B.$.( #.$.y.E.@.wXBXeX<X<X2XpXfXfXMXfXfXuXpXpXsXsX2X~.;.$     $ u.=.o.9._ B c.M.yXNX}.NXL.' w & o o .     ",
"  . . o O & e ` H.KXW O.s.} ~ } p.Q.:XH tXNX>X>XiXiX3XaXcXdXsXuXiX2X(.^.2XG.O         + c s._ 9 0 @.M.=XNXnXbXh.>.d 5 @ o .     ",
"  . . . . # 7 +.7XxXCX: C.9.s 8 / e.U.P.M rXuXE.3XuXpXiXsXuX8XeX;X%.#.^.Y.+.            @.0.d * 5 O.K.=X XKXzXoXn.` y #         ",
"        o @ 7 x 4.+XFXW o.f.) 9 * f $.g.].G rX/.;X=.=.I.B.%.#.Q.G.%.0.7.r.B       X     N 8.d & 8 / D.&XlXJXbXoX3.>.j #         ",
"O o .     @ 5 y x 1.zXGX; i.0.) 9 & 9  .E.L.m L.T.C.F.(.=.X.;.K.p.9.9.$.e.-..           x } 9 3 h #.K.n.HXZXZX].n.>.y @ o       ",
"o o o .   o & 7 k +.rXPX.Xi A.7.( w 4 d #.t.K.O.O.B.S.E.F./.V.y.u.8.7.| t.Z.c X         -._ p p X.u.b.hXZXNXVX}.c.:.y @ .       ",
"+ . o o   . O - y l %XKXPXY o.f.| ^ l / X.$.y.Y.B.N O.B.E.I.Z.8.8.s.f.t.u.X.h H b ;   : e.^ s ( 7.#.`.NX8XlXlX'.<.F i # .       ",
"o . .         O - e o.j.bXJX2 -.g.$.| G.h.r.s.f.Z.Y.D.:.B B N O.O.O.l z o.=.Z.Y.I.= + 4.8.( _  .} V NX3X*X5XnX`.x.F u # .       ",
"+ . . .       . $ r x &.OXDXmX> -.Z.9.7.9.*.e.a.s.A.Z.S.Y.N.p.=.=.u.N.f.0.t.Z.=.y n u.8. .} 7.#.u lX1XOXoXwXjX`.x.F t # o .     ",
"+ . .     . . o @ t y x *XNXZXCX> 2.U.a.q._ f l #.C.q.%.} {  .{ { $. .} { a.u.*.p.0.7. .| 7.X., nX1X4.3.n.XXjX`.,.F t # O .     ",
"o . . .   .   . O # - z +.-.4.8XCX2 N Q.U.a.#._ 3 3 - O * d %.^ f ~ d p f a.8.7.| | | 7.r.l 2 nXvXh...>.n..XnX|.).D t $ O . . . ",
". . . . .     .   @ = 5 0 a ` 3.1XZXW ; b.A.r.} f 4 & O @ & 3 3 3 9 s e &.;.} }  .7.0.%.* T bX8X$Xj.>.' >.[.nX|.v.H i : O . o . ",
". . . o           o o @ = 7 z F +.j.qXwX> i =.r.$.} ( ~ 0 * # - 8 ~ { ~ *.*.%.%.7.$.j < gXzX+Xj.....' x F x.XXXX_.J b t @ X + + ",
".     .               O @ - i z e ` 4.1XzX0X< t X.e.t.8.} ( / ( } { _ { $.7.9.#.a < gXGXzX4.` g g w e r i L _.wX{.U m v : + ; < ",
"o     . .             . o O @ - 5 w x 1.j.8XZXhXY ; t l #.=.9.q.9.%.%.#.x i % Y hXJXNXOX1.x w 5 3 # # # 3 D L ).wXx.G c t $ ; < ",
".     . .       .   .     o O % - 6 7 a g ` 4.OXxXSXhX! T 2 < > > 1 2 W .XkXJXKXcX$Xh.' g p 3 # # o O O @ u D U ).XXU m c : ; < ",
"      . . .       .         O % # - 5 - 7 e g ` +.j.$X7XaXBXFXZXbXZXHXAXxXzX1Xh.j.&./ h w 4 # O O o . . o % u C I {.`.P Z : , < ",
"        o . .       .   . o o O o @ $ * * r w 4 e g &.&.&.1.4.4.1.&.4.j.4.&.' ` k q w 3 & & # o o .       @ : t m U .XI G v 1 < ",
"                                . . o O @ = - & # & r p 9 e e a a r p g x g j 8 4 * & @ o % O . . .   .   X % $ v G U E P m v < ",
".     .             .         .     . . o @ @ @ O @ # - 3 - & & * * - - 4 3 3 * & @ O o . + . . . o       . + o ; v b I E Z b 1 ",
"                                .         o . . o o @ O @ @ @ O O @ @ @ @ & # @ o o o     . .     . .       . . + % , Z I I Z v ",
"                                X       . . .   . . o . o o o o o O o . . o o . . .         .   .           o . . + ; v v Z P Z ",
"        .                       .   .   . .   . . . . .   .       . .   . . .                 . .           .     X + ; v v Z V ",
"                              . .         . . . o . .     . .   . . .   .                   .   .                 . X ; ; 1 V Z ",
"                                o .   .   .   . . . . . . .   . . . .       o .         X     . .           X     . X ; ; < 1 V "
};
