/* XPM */
static char *result[] = {
/* columns rows colors chars-per-pixel */
"64 64 255 2 ",
"   c #382E30",
".  c #4B1D04",
"X  c #561C03",
"o  c #6D1705",
"O  c #731D06",
"+  c #592606",
"@  c #472315",
"#  c #532A16",
"$  c #682906",
"%  c #792908",
"&  c #6A3409",
"*  c #783707",
"=  c #682A15",
"-  c #773815",
";  c #703018",
":  c #493225",
">  c #543527",
",  c #56382D",
"<  c #453936",
"1  c #69382B",
"2  c #763927",
"3  c #633C35",
"4  c #7C440B",
"5  c #744B0F",
"6  c #6C4214",
"7  c #794513",
"8  c #5A493A",
"9  c #7A4428",
"0  c #6D4338",
"q  c #74493A",
"w  c #554A44",
"e  c #554D4E",
"r  c #5C534A",
"t  c #675848",
"y  c #795A47",
"u  c #6D5751",
"i  c #6E6153",
"p  c #786759",
"a  c #605F64",
"s  c #696666",
"d  c #7C6D63",
"f  c #776E6A",
"g  c #7A7368",
"h  c #7D746B",
"j  c #686A73",
"k  c #7B7674",
"l  c #872B08",
"z  c #8B2D0B",
"x  c #8F2D0B",
"c  c #873806",
"v  c #8B340C",
"b  c #8D3A0C",
"n  c #93370A",
"m  c #923C0D",
"M  c #893814",
"N  c #943A14",
"B  c #883C23",
"V  c #83440C",
"C  c #8B440C",
"Z  c #894808",
"A  c #93420D",
"S  c #934C0C",
"D  c #99480B",
"F  c #8C550B",
"G  c #96570B",
"H  c #9C530D",
"J  c #8B4313",
"K  c #864913",
"L  c #934413",
"P  c #9B4513",
"I  c #954C12",
"U  c #9C4B13",
"Y  c #994B1B",
"T  c #8C5313",
"R  c #885315",
"E  c #8D5B12",
"W  c #945314",
"Q  c #9C5313",
"!  c #945B13",
"~  c #9C5B14",
"^  c #945719",
"/  c #9C541B",
"(  c #9C5C1B",
")  c #A2570C",
"_  c #A54A17",
"`  c #A24D15",
"'  c #A25314",
"]  c #AA5717",
"[  c #A35C14",
"{  c #A4551A",
"}  c #A45B1B",
"|  c #AA5C1B",
" . c #B25E18",
".. c #97640C",
"X. c #9D6315",
"o. c #976C13",
"O. c #9C6A15",
"+. c #9C631B",
"@. c #966818",
"#. c #A7670D",
"$. c #AC7A0D",
"%. c #A46414",
"&. c #AB6415",
"*. c #A36B15",
"=. c #AC6B15",
"-. c #A4631B",
";. c #AC631B",
":. c #A46B19",
">. c #AC6C1A",
",. c #B36818",
"<. c #B26C1C",
"1. c #AC7315",
"2. c #AD731A",
"3. c #A87718",
"4. c #B37316",
"5. c #B47B15",
"6. c #B97916",
"7. c #B4731B",
"8. c #BA751A",
"9. c #B47B1B",
"0. c #BB7C1A",
"q. c #88492A",
"w. c #974B25",
"e. c #8A572B",
"r. c #985627",
"t. c #8E5437",
"y. c #AA5324",
"u. c #A65A25",
"i. c #996828",
"p. c #976931",
"a. c #AC6322",
"s. c #A76926",
"d. c #B36A26",
"f. c #AA7726",
"g. c #B57223",
"h. c #B77727",
"j. c #BA7B23",
"k. c #A76A34",
"l. c #B66C36",
"z. c #A97737",
"x. c #B67A35",
"c. c #C67C1B",
"v. c #C37A29",
"b. c #86594B",
"n. c #926C4F",
"m. c #856B5A",
"M. c #9A7758",
"N. c #A6774C",
"B. c #877169",
"V. c #85786A",
"C. c #977867",
"Z. c #857B74",
"A. c #A57A68",
"S. c #B78516",
"D. c #B78C11",
"F. c #BC831C",
"G. c #BC891C",
"H. c #AC8228",
"J. c #BB8322",
"K. c #BD8B23",
"L. c #B98628",
"P. c #B9922E",
"I. c #B78734",
"U. c #C7990C",
"Y. c #C78A12",
"T. c #C2851C",
"R. c #C78A1B",
"E. c #C48B1D",
"W. c #C59616",
"Q. c #C5931C",
"!. c #CA941E",
"~. c #CC9A1D",
"^. c #D49C1A",
"/. c #D4AA11",
"(. c #D8A21C",
"). c #DAB617",
"_. c #E7B412",
"`. c #C58E23",
"'. c #C78925",
"]. c #C49324",
"[. c #CB9421",
"{. c #C89829",
"}. c #D69823",
"|. c #C48837",
" X c #C59635",
".X c #D49231",
"XX c #CDA425",
"oX c #D5AC2E",
"OX c #E7B12E",
"+X c #F2CE09",
"@X c #EAC815",
"#X c #E8C73E",
"$X c #B78847",
"%X c #B38B50",
"&X c #8E816D",
"*X c #8B847B",
"=X c #978777",
"-X c #938B7D",
";X c #AB8D71",
":X c #BB9877",
">X c #C79748",
",X c #D0AB4D",
"<X c #EABF4A",
"1X c #C69D6C",
"2X c #CEA974",
"3X c #EBD855",
"4X c #8D8985",
"5X c #958C83",
"6X c #9A9487",
"7X c #9B9893",
"8X c #A58E82",
"9X c #A89987",
"0X c #BA9A86",
"qX c #A59D96",
"wX c #B9A28D",
"eX c #AAA39A",
"rX c #B4A492",
"tX c #B9A797",
"yX c #BBAC9D",
"uX c #B6B59D",
"iX c #B6ADA4",
"pX c #B1ADAA",
"aX c #BBB3A6",
"sX c #C59B85",
"dX c #C9A78B",
"fX c #D3AC88",
"gX c #DAB586",
"hX c #C8AC96",
"jX c #CBB59B",
"kX c #D8B899",
"lX c #E2B884",
"zX c #E1BC9A",
"xX c #C7B7A6",
"cX c #D6BAA2",
"vX c #C7BEB3",
"bX c #DBC295",
"nX c #E4C68D",
"mX c #E8C89B",
"MX c #DBC7A7",
"NX c #C8C3B9",
"BX c #D6CAB2",
"VX c #E8C9A6",
"CX c #ECD2A8",
"ZX c #E7CCBA",
"AX c #EFD6B2",
"SX c #F6E6B6",
"DX c #D8D6D0",
"FX c #EAD2C2",
"GX c #E2DED8",
"HX c #EFEBD1",
"JX c #FDF9D9",
"KX c #EBEAE7",
"LX c #FBF9E6",
"PX c #F9F8F4",
"IX c #FEFEFC",
/* pixels */
"Z.n.n.i.&X-Xi 8 < &X9 & $ = i =X&X@.@.^ $ m.-Xn.H.H.$X$XoXH.7 i.q.i.P.>X%XP.D.z.A.B.$ R @.I.M.=X;Xy = = = 9 y < r 6XiXy i.n.g e ",
"s =Xp.p.uX:Xt : 8 5 $ $ = p -X4Xb.H.@.i.l ; t.i.r.N.2X,XP.K.K i.4 H.I.1X2X%Xz.S.d.; % ^ r.H.I.=X4X9Xm.1 = $ - : r *XNXC.%Xm.h e ",
"j 4X%Xn.BX&Xt : & & $ 0 V.9X4XC.f.H.^ +.K % f.P.oX%Xp.I.L.K.F.; O.P.h.I.k.1XoX(.[.K 4 ! ! f.P.$X6X9XdX=Xp 0 ; # r g vXqXp.C.-Xw ",
"s *X%XM.uX&Xt # > 0 d ;XdX0X-XN.H.f.+.-.^ K +.k.bX$Xi.p.H.f.L.V f.H.H.s.r. X2X%Xu.L.K ! +.f.I. X%X9XkXfXdX8XV.y r g uXxXz.&Xa s ",
"e a %X:XxXV.i 8 V.0XwXjXkXwX%XP.P.f.+.-.J 3.J M f.O.+.M T ( ( s.( ^ ^ J -.s.f.u.B '.Y ^ ( i.XX{.oX:XkXMXMXdXwX=Xw g iXDX%XZ.  j ",
"< < :XbXMXV.i r 6XwXkXmXkX;XoX{.>Xs.-.~ K H.% Y f.k.f.s.L.F.^ k./ L.L.s.h.s.2.y.M d.h.T ( i.>X,X#XoXdXAXVXkXrX0Xr f yXDX%Xd     ",
"  : ;XbXMXV.t i qXdXbXmXuX XoX,X$Xa.-.Q X.+.% w.} ;.g.g.( 9.J.^ J.f.-.g.j.>.d.a.M _ {.L ~ +.s.,XoX_.,XcXVXkXhX9Xr g aXGX1Xd     ",
"< < :XMXMXV.r g tXkXjXbX1X XP.P.-.-.&.m P.I z L W * - m ( K 3.@.3.K ( J M M Y L M L  Xu.~ +.-.r.].oX@XlXkXjXkX9Xr g xXGX1Xf   w ",
"< 8 2XBXMX&X8 k hXkXtXkX XP.K.~ } %.| I  XY v o N d.a.|.v.h.J W c s.h.P.u.v.y.l M N x.oXK ~ ~ Q w..X<X<XkXhXzXtXi g vXKX1Xd < e ",
"< e :XCXCX&Xt *XkXVXhX2X Xj.L I ' { v P.L.m P % r.z.z.t.|.d.r.i.l./ I.t.k.l.N.N x w.u.OXL L U I N _ OXOXfXcXzXhXi g aXKX1X=XZ.r ",
"g *X:XBXMX&X8 -XjXVXkX>XL.N m m P N % oXd.U U % r.B u B.y B k.f.|.B 0 Z.*Xy l.N m | _ {.d.l m m N N w..X1XcXcXiXi g uXKX2X8XrX5X",
"-XeX1XCXMX&Xt 4XjXCXcXx.L x n m n z Y {.' | ` % g.N.GXIXaX1 - R - 2 =XPXKX;X.XN L d.{ J.'.N l x n N N _ 1XcXVXhXg g uXLX2X9XqXM.",
"&X9X2XAXmX&Xt 5XcXMXhXy.z z v x z N } F.U d.P %  X>X%X;XN.w.( ^ { w.k.%X%X>XOXy.% a.| ;.`.y.z x l x x N A.jXcXiXg g tXPXfX9XM.I.",
"XX&XwXAXmX*Xt 6XxXxXhXB z z x x z P 8.g.' d.z z >X|. XI.u.-.g.L.'.a.y.x.'.|..X_ v P g._ K.{ ] l l x B q.N.tXxXhXd g yXLXgXA.e.<X",
"OXp.fXCXmX&Xu 4XhXeXhXn.C.B x x P U J.] ;.D P x N.v.d.} d.-.g.P..Xl.d.d.d.v.l.x _ v ;.{ j.d.{ n x N 8XjXkXcXeXiXV.h yXLXgX;Xz.z.",
"P.$X2XVXVXC.y 7XeXiXMXVXVXA.z z  .Q F.` g.v _ l O M u.K.I.| |.K.OXv.d.oXd.N O O N _ L ;.<.'.L y.N B tXVXVXxX6XiXZ.h yXLXgX:Xp.P.",
".Xz.2XCXmXC.y 7XeX6XxXMXxXC.N _ ` <.8.' U { ` l c v z L.-.U .XL.OX .` L.| m Q % N a._ a.Q '.] a.N u.6XiXcXeX7XeXd g aXPXgX:Xz.k.",
"x. XfXVXCX;Xu Z.7X7XqXeX7Xk.` d.P J.;.&.L g.N % G c I %.c l % M l l n H ' U Q l y.{ d.m ] 0.d.U y.| N.6X7X7XqX7Xp h xXPXzX2X$XB ",
"w.>X2XAXAX=Xy d eX7X7X4XM.j.U ;.u.J.U ' I.u.N O Q f.c c 2.J.;.% ' '.}. .c :.a.V z N v.>X{ >.c.` 7.J L.%XZ.*X5XZ.n.h xXIXmXfXt.n.",
"C.k.lXAXSX-Xt.I.n.m.p z.].b >.U g.8.P k.,XN _ % U X.@.].K.L.{.^ '. X{.}._.! %.L O d.a.,X/ U v.;.} a.l `.P.z.z.I.P.g NXIXmXsXb.qX",
"qXM.kXCXSX-Xp.P.{.].{.].m b <.` g.&.m I.{ ] x l ) C {.[ Q T F % Z ! / | }.Y.S H O _ _ h.I.m <.v.P 0.J M j.].{. Xt.h NXIXmXsX8XqX",
"eX9X2XCXJX-Xy Y L.`.-.n z F.' | 8.U a.| N ] l O c 9.>.v S 1.1.T 2.1.>.H m (.&.m o x c.N g.y.] <.u.;.J.z v J / r.k.V.NXIXzXkXqXiX",
"tXqXlXCXJX-Xy f.( m v b -.F.P d.;._ ] v v.x l O 7.1.c U J.Q v % n ` <.j.D D }.d.l x _ c.m a._ <.d.P `.a.M L Y u.q.V.NXIXmXxXqXiX",
"eXqXnXAXJX6Xy M l A P c K.;.u.;.] { n 8.n x N P [ b A %.G.' Q L <._ 7.[._ ` P <.N n x ) c.n { ,.d.] >.{.c J r.r.q.Z.NXIXCXBXqXhX",
"tXqXnXAXJX9Xy K ( m % 2.].L x.<.P b h.m x v Y %.Q ` &.) Q <.8.L v..X . .D d.d. .;.u.z c D R.H m >.|.{ P.h.% M ; 1 k NXIXCXMXeXjX",
"cXqXnXAXLX9Xp = - L L ].>.l.g.n [ `.n n l a./ <.0.d.7.[ >.9.9.W ,.^.v.<.8.'.v.'.h.P u.l x ) _.Y.Q d.u.g.{._ w.r.1 Z.NXIXCXkXeXVX",
"CXeXlXAXLX9Xp - d.v 9.K.U L ( XX{.D n l r.d.Y v [ j.].>.j.F.U S.^. .!.c.c.'.v.z P { h.w.c c H oX+X{.w.U P.j.N l.t.*XNXIXCXkXeXCX",
"VXeXnXCXJX9Xm.w./ U J.| A  X#XL.D n n D s.g.a.a.z { ` ,.0.} >.f.}._ ,.R.]  .l N I.a.d.L.m n D ~ I.3X@X&.u.h.u.w.t.*XNXIXAXMXqXVX",
"VXqXnXCXJX9Xm.Y M d.u.U oX{.f.) D Z v f.5.d.h.>Xa.M P 7._ ] <.2.}.]  .;.| m P l.j.h.d.W.h.b c G ( s.].@X,.{ h.B q.*XNXIXAXMXqXcX",
"cXqXnXCXJX9Xm.- / } J  Xg.X.H H c n a.{.W ;.j.;.U | M ~ P ` } -.c.N ] _ N P | [ ;.h.a.i.oXd.n c G ~ [ =._.a./ u.2 k vXIXCXbXqXxX",
"hXqXgXCXJX9Xp - a.J $X-.H ~ H c c | `.*./ | | U { ;.] l l U N L _ x N % m  .;.{ P ;.| ^ D.}.;.n c S H ~ %.}.u.r.2 Z.aXIXCXbX7XyX",
"eX6XgXVXJX8Xp K J x.d.[ [ G c l D !.E.c a.U L { | ' U ' A O o % l o % U Q H { | | P Y } Z (.!.&.H c F ~ ~ ;..Xw.q.h iXIXCXkX5XrX",
"rX-X2XmXJX;Xp - r.x.Q [ G Z S.(._._.Y.J a.A  .D ) /.@X+X=.| L X o Y [ S.@X+X).#.` ] ` a.S /.+X@XXX~.%.F ~ ~ h.x.2 f iXIXCXkXM.6X",
"=Xt.gXmXJX-Xy ; N.{ ) ) Z 3.D.U.).+X+XU.|  .m ,.U.Q.W.^.4.G.%.Q ;.%.G.2.Q.[.~.).T.D | -.).+X).)./.U.S.H S S Y v.2 f pXIXZXkXq M.",
"p.9 fXmXJX;Xi 2 k.U D C X.~.+X+X+X+X/.).{ D 1.$.Q.0.G F 9.T.D.K Q ~.0.7.F ..F.`.0.5.` -.K.D.+X+X+X+X_.4.C C L k.t.f pXIXZXcXq r.",
"r.2 dXmXJX8Xi t.Y L A K F.).U.D./.D.S A U [ H c.E.>.~ 0.8.T.~.E 3.E.T.8.F.Z 4.R.F.4.7.~ F S 3.o.#.o._.(.W c b B r.k aXIXZXcXy 2 ",
"M 1 hXmXJX;Xp q.N m c -.~.Z c & Z ` 5./._.$.,.4.T.0.V G ) c * $.5.* * H Z Z T.T.4.,.^.+X_.5.{ b & Z Z /.c.% v M t.k pXIXZXhX0 B ",
"- 1 fXzXJX9Xp K x x % L.9.&.S c D ` $.)./.G 4.4.0.T.0.) ) U.).Z F ).Y.) H F.F.4.4.,.G ).).#.U U * Z 4.5.R.% % M B k pXIXZXfX3 2 ",
"M 1 hXzXJXrXd M l % % L.4.R.D c D b X.XX#.H ) D c n Z D._.}.(.o.D.Q.^._.#.c c c D ) S 1.~.#.c m c S E.5.R.T V - B k vXPXZXcX0 2 ",
"B 2 fXzXLXrXg - c D.^.2.0.[.6.A C V S.5.Z D c $ * * * c U.(.^.Y.W.].^.#.Z * * * $ c D Z $.E.I C Z S.!.T.;.(.).3.2 k pXPXZXcXy q.",
"r.q hXzXLXtXV.7 G.).+X3.].~.^.R.7.0.Y.Z * * % S [ <.c H G _.}.!.~.`.^.) ) c 8.] D * % * c D.R.R.!.{.!.Y.:.@X@XXXt.Z.aXIXFXcXd q.",
"9 V.dXzXLXyXV.i.{.).XXF ! ~.^.^.!.!.Z % $ &.) H ;.8.U [ ) _.[.W.Q.G.^.,.[ H 8.| Q %.8.$ $ Z W.~.~.~.F.Z 4 z.).}.x.k pXIXZXcX4Xm.",
"=X6XjXzXLXrXh p.]...Z Z * 4 D.D.$.* * * [ T.T.H =.) W 2.&.^.T.F.S.6.^.c.c.D H <.~ T.R.' * * * F ..E & $ Z Z 4 G.I.k pXIXZXkX5X9X",
"9X6XbXkXLXrXg z.Z S D * Z V & + X $ * =.%.R.R.>.,.G _.^.c.R.4.[ %.=.R.c._._.F =.<.E.`.&.=.V + X + * F F * Z Q 7 z.h pXIXFXmX5X6X",
"6X6XkXzXLXrXg e.W Q F %.&.1.7.>.X.:.>.4.1.R.!.7.4.S $.U.$.) [ ( %.G G $.U...S 7.8.!.`.4.4.>.J.9.F.0.1.%.%.~ Z s.e.f eXIXFXMX-X9X",
"6X5XkXmXJXrXd e.>.>.7.0.=.=.S.E.[.J.<.1.7.R.!.6.6.' Z $ $ * S 2.9.S * $ $ G H 8.6.!.R.7.1.>.F.[.E.F.W G 9.9.j.O.r.k eXIXFXcX-X6X",
"6X-XcXkXJXrXd e.g.'.`.+.* c V Q.!.G.6.5.7.R.!.0.8.&.F.>.C =.%.8.9.-.>.C 4.0.&.8.0.!.R.8.4.6.J.[.].* I I - K.K.j.p.f eXIXFXkX5X6X",
"-X-XhXkXJXrXV.e.'.}.[.* | ;.$ 7.!.K.0.S.7.R.!.T.6.7.`.6.U 7.%.9.9.-.7.H 4.R.4.6.T.~.`.8.5.F.F.~.F.$ ' ;.V j.`.'.i.f qXIXFXdX-X-X",
"&X-XdXgXJX9XB.e.L.}.}.*  .Q * :.~.G.F.0.4.R.!.T.8.8.R.0.Q >.%.F.9.%.=.H 6.E.8.8.T.[.R.7.5.F.G.~.0.& #.H * j.].K.k.f 7XIXFXsX4X*X",
"b.&XdXkXLXrXh p.g.}.(.7.C 9.$ 9.~.F.0.S.<.R.!.F.4.6.[.8.Q &.%.F.F.>.&.Q 6.R.c.4.T.[.`.4.S.0.E.~.`.& D.g.0.{.].h.i.f eXPXFX0X4XB.",
"q.Z.0XfXLXrXg 1 E 3.[.^.H.4 & Q.G.`.F.S.7.!.!.9.,.0.[.c.[ =.*.G.S.=.,.~ 4.!.T.,.5.~.[.c.4.!.T.F.~.! $ O.E.G.f.R # f eXPXFXsX-Xy ",
"B m.wXfXLXtXV.: + & & & + + J.~.F.0.!.#.T.!.!.1.&.R.[.8.[ <.*.Y.S.=.7.[ 7.R.R.,.5.G.[.Q.H ^.0.Q.Q.Q.F + + + + # @ k 7XPXFXsXZ.2 ",
"z.b.sXhXKXtXZ.> + . . + $ F.!.S.Q.4.~.G E.[.5.0.,.R.E.,.&.2.1.E.5.F.<.%.-.R.E.4.F.1.!.R.[ W.F.T.F.~.!.K & X X = @ f qXKXZX8XC.N.",
"$Xy hXdXKXrXV.> - - $ K R Q.G.J.9.T.F.#.E.Q.2.F.8.R.'.[ &.:.^.F.5.~.4.[ [ R.`.c.6.=.[.Q.6.$.R.7.Q.9.].2.I & K 7 @ j 7XKXZXA.B.b.",
"k.y wXsXHX0XV.: 7 R V 7 ^ G.9.9.7.E.#.F.Q.].-.4.F.R.'.~ ~ W.8.0.1.,.~.~ ~ F.R.T.,.2.G.].E.G !.T.*.E.2.2.R $ ( 7 @ f 7XKXZXA.B.2 ",
"r.3 8X1XHX9Xh > 7 7 $ 7 ! :.S.+.F.Q.! E.Q.2.9.>.T.E.F.Q V K 6.6.1.0.S Z I 0.`.E.=.E.*.Q.E.1.S.G.9.*.F.+.^ $ K 7 @ s 5XGXvXA.B.2 ",
"i.0 ;X:XDXrXg > 7 7 $ 7 V K.^ F.G.*.9.Q.W.+.F.>.F.`.9.~ 7.H S.9.O.T.S 0.~ =.T.T.0.2.%.G.Q.K.%.T.F.*.3.~ ^ + 7 7 @ u 4XGXNXA.m.b.",
"f.0 =X:XSX;Xp > & K * 7 R @.9.9.S.~ G.G.3.>.3.6.F.F.[ X.S X.E.G 4 Y.1.S -.W F.F.F.>.F.X.G.F.=.3.F.F.X.+.T * W 7 @ s 4XDXvXA.f q.",
"e.8 ;X:XDX-Xp : 6 7 $ 5 V +.9.9.G 2.G.K.^ 9.*.9.F.0.K D.S.S.#.Z 4 ..G.S.W.E 7.F.F.*.S.X.9.F.S.T F.2.2.K E + 4 7 @ u *XDXvXC.B.1 ",
"7 , -X;XBX-Xi : 6 - $ 5 * :.1.3.F H.S.@.3.9.*.9.9.%.3.=.[ *.* F V * G #.%.S.^ F.9.2.1.9.@.S.S.:.F 9.2.T E + - 7 @ r k DXxXb.f 1 ",
"1 , 8X;XBX-Xi : 6 6 . 5 K :.3.4 3.3.3.E 2.! 3.9.2.K 5.2.4.F V G Z Z 4 F.4.5.! *.9.9.^ 5.:.O.3.S.S o.*.^ E + 6 5 @ e j NXxXb.f # ",
"= 8 =XM.NX-Xi : 6 - & 5 7 O.E ! 3.o.E :.3.4 2.3.! W 3.* & ! Z [ K S F & * ! =.K 2.3.! o.3.R O.$.3.7 1.W E + 4 5 @ e k vXhXb.f = ",
"2 , C.C.uX*Xr : 6 & . 5 7 X.4 O.3.@.R *.E o.*.3.V X.& *.Z & [ X.R G 7 V :.4 ..* 1.3.*.5 3.O.E o.3.T E R E . & 6 . e s xXtXq s = ",
"6 > m.M.uX&Xt @ 6 & . & 4 R F O...5 O.o.+ S.E 3.& $ ! *.V $ X.X.7 ! * C E -.& & ..o.o.4 E O.R E o.@.4 R 5 . # & @ w s pXtXy u # "
};
